<svg width="60" height="60" viewBox="0 0 60 60" fill="none" xmlns="http://www.w3.org/2000/svg">
<path d="M30 53.4367C36.6126 53.4367 42.9543 50.9675 47.6301 46.5723C52.3059 42.177 54.9327 36.2158 54.9327 30C54.9327 23.7842 52.3059 17.8229 47.6301 13.4277C42.9543 9.03246 36.6126 6.56323 30 6.56323L30 30L30 53.4367Z" fill="#6269EE"/>
<path d="M29.9191 0.0808567C25.9901 0.0914748 22.1016 0.87587 18.4757 2.38926C14.8498 3.90265 11.5575 6.11539 8.78677 8.90114C6.01602 11.6869 3.82111 14.9911 2.32734 18.6251C0.833575 22.2592 0.0702077 26.1518 0.080826 30.0809C0.0914444 34.0099 0.87584 37.8984 2.38923 41.5243C3.90262 45.1502 6.11536 48.4425 8.90112 51.2132C11.6869 53.9839 14.9911 56.1789 18.6251 57.6726C22.2591 59.1664 26.1518 59.9298 30.0808 59.9191L30.0633 53.4185C26.9879 53.4268 23.941 52.8293 21.0966 51.6601C18.2521 50.4909 15.6658 48.7729 13.4853 46.6042C11.3048 44.4354 9.57286 41.8584 8.38829 39.0204C7.20371 36.1823 6.58975 33.1387 6.58144 30.0633C6.57312 26.9879 7.17063 23.941 8.33985 21.0966C9.50906 18.2521 11.2271 15.6658 13.3958 13.4853C15.5645 11.3049 18.1415 9.57289 20.9796 8.38831C23.8177 7.20374 26.8613 6.58978 29.9367 6.58147L29.9191 0.0808567Z" fill="#1E2128"/>
</svg>
